<?xml version="1.0" encoding="utf-8"?>
<!-- Generator: Adobe Illustrator 17.0.0, SVG Export Plug-In . SVG Version: 6.00 Build 0)  -->
<!DOCTYPE svg PUBLIC "-//W3C//DTD SVG 1.1//EN" "http://www.w3.org/Graphics/SVG/1.1/DTD/svg11.dtd">
<svg version="1.1" id="Capa_1" xmlns:sketch="http://www.bohemiancoding.com/sketch/ns"
	 xmlns="http://www.w3.org/2000/svg" xmlns:xlink="http://www.w3.org/1999/xlink" x="0px" y="0px" width="192.188px"
	 height="278.861px" viewBox="55.645 74.135 192.188 278.861" enable-background="new 55.645 74.135 192.188 278.861"
	 xml:space="preserve">
<title>Slice 1</title>
<description>Created with Sketch (http://www.bohemiancoding.com/sketch)</description>
<g id="Page_1">
	<g id="Layer_1">
		<path id="Shape" fill="#FFFFFF" d="M233.164,89.681h-24.688l25.674,27.859v13.261h-52.882v-15.526h25.669l-25.669-27.86v-13.28
			h51.896L233.164,89.681L233.164,89.681z M170.786,89.681h-24.688l25.673,27.859v13.261h-52.882v-15.526h25.672l-25.672-27.86
			v-13.28h51.897V89.681L170.786,89.681z M109.018,90.312h-26.64v24.313h26.64v16.176H63.444V74.135h45.574L109.018,90.312
			L109.018,90.312z"/>
		<g id="Group" transform="translate(55.000000, 142.000000)">
			<path id="Shape_3_" fill="#FFFFFF" d="M93.797,75.496h49.275l3.403-38.132H93.797V0.125h0.129h93.246l-0.893,9.991
				l-9.152,102.616h-83.33L93.797,75.496L93.797,75.496z"/>
			<path id="Shape_4_" fill="#EBEBEB" d="M94.02,172.204l-0.163,0.046l-41.472-11.199l-2.652-29.698H29.582H12.354l5.216,58.467
				l76.278,21.176l0.172-0.048V172.204z"/>
			<path id="Shape_5_" fill="#FFFFFF" d="M139.907,111.156l-4.484,49.87l-41.532,11.21v38.742l76.339-21.158l0.56-6.29l6.478-72.374
				L139.907,111.156L139.907,111.156z"/>
			<path id="Shape_6_" fill="#EBEBEB" d="M93.926,0.125v23.128v14.019v0.092H4.098H3.979l-0.747-8.37L1.535,10.116l-0.89-9.991
				H93.926z"/>
			<path id="Shape_7_" fill="#EBEBEB" d="M93.797,75.5v23.129v14.017v0.092H52.969H52.85l-0.746-8.369l-1.698-18.878l-0.89-9.991
				H93.797z"/>
		</g>
	</g>
</g>
</svg>
